<svg xmlns="http://www.w3.org/2000/svg" viewBox="0 0 1120 380" width="100%" height="100%" role="img" aria-labelledby="heroTitle heroDesc">
  <title id="heroTitle">geoai2analytics Engine Architecture</title>
  <desc id="heroDesc">Animated spatial analytics architecture showing Exploratory Spatial Data Analysis, Multiscale GWR Econometrics, and Explainable GeoAI Spatial SHAP.</desc>
  <defs>
    <linearGradient id="heroBg" x1="0" y1="0" x2="1" y2="1">
      <stop offset="0%" stop-color="#07121b"/>
      <stop offset="50%" stop-color="#0b1c2b"/>
      <stop offset="100%" stop-color="#091522"/>
    </linearGradient>
    <linearGradient id="accentGrad" x1="0" y1="0" x2="1" y2="0">
      <stop offset="0%" stop-color="#10b981"/>
      <stop offset="50%" stop-color="#06b6d4"/>
      <stop offset="100%" stop-color="#3b82f6"/>
    </linearGradient>
    <linearGradient id="kernelGrad" x1="0" y1="0" x2="0" y2="1">
      <stop offset="0%" stop-color="#06b6d4" stop-opacity="0.45"/>
      <stop offset="100%" stop-color="#06b6d4" stop-opacity="0.0"/>
    </linearGradient>
    <filter id="glowPulse">
      <feGaussianBlur stdDeviation="6" result="coloredBlur"/>
      <feMerge>
        <feMergeNode in="coloredBlur"/>
        <feMergeNode in="SourceGraphic"/>
      </feMerge>
    </filter>
  </defs>

  <rect width="1120" height="380" rx="20" fill="url(#heroBg)" stroke="#1e293b" stroke-width="2"/>

  <!-- Top Title Bar -->
  <text x="44" y="48" font-family="'Plus Jakarta Sans', Inter, sans-serif" font-size="22" font-weight="800" fill="#ffffff" letter-spacing="-0.01em">Pure-Python Spatial Statistics, Econometrics &amp; Explainable GeoAI</text>
  <text x="44" y="74" font-family="'Fira Code', monospace" font-size="13" fill="#94a3b8">ESDA (Moran / LISA) &#183; Spatial Econometrics (GWR / MGWR / SAR) &#183; Interpretable GeoAI (Spatial SHAP)</text>

  <!-- Left Card: ESDA & LISA Quadrants -->
  <g transform="translate(44, 98)">
    <rect width="320" height="248" rx="14" fill="#0d1f30" stroke="#1e3a53" stroke-width="1.5"/>
    <text x="20" y="32" font-family="'Plus Jakarta Sans', sans-serif" font-size="15" font-weight="700" fill="#38bdf8">1. Spatial Autocorrelation</text>
    <text x="20" y="52" font-family="Inter, sans-serif" font-size="12" fill="#64748b">Global Moran's I &amp; LISA Clusters</text>

    <!-- Axes -->
    <line x1="30" y1="140" x2="290" y2="140" stroke="#334155" stroke-width="1.5"/>
    <line x1="160" y1="65" x2="160" y2="215" stroke="#334155" stroke-width="1.5"/>

    <!-- Quadrant Labels -->
    <text x="220" y="85" font-family="'Fira Code', monospace" font-size="10.5" fill="#ef4444" font-weight="700">High-High</text>
    <text x="45" y="200" font-family="'Fira Code', monospace" font-size="10.5" fill="#3b82f6" font-weight="700">Low-Low</text>
    <text x="45" y="85" font-family="'Fira Code', monospace" font-size="10.5" fill="#06b6d4">Low-High</text>
    <text x="220" y="200" font-family="'Fira Code', monospace" font-size="10.5" fill="#f59e0b">High-Low</text>

    <!-- Moran Trend Line -->
    <line x1="60" y1="195" x2="260" y2="85" stroke="#10b981" stroke-width="2.5" stroke-dasharray="4 3"/>

    <!-- Scatter Points -->
    <circle cx="230" cy="95" r="6" fill="#ef4444"><animate attributeName="r" values="6;8;6" dur="3s" repeatCount="indefinite"/></circle>
    <circle cx="250" cy="110" r="5" fill="#ef4444"/>
    <circle cx="215" cy="115" r="5" fill="#ef4444"/>
    <circle cx="90" cy="175" r="6" fill="#3b82f6"><animate attributeName="r" values="6;8;6" dur="3s" begin="1s" repeatCount="indefinite"/></circle>
    <circle cx="75" cy="160" r="5" fill="#3b82f6"/>
    <circle cx="110" cy="185" r="5" fill="#3b82f6"/>
    <circle cx="100" cy="115" r="4.5" fill="#06b6d4"/>
    <circle cx="230" cy="165" r="4.5" fill="#f59e0b"/>

    <text x="20" y="235" font-family="'Fira Code', monospace" font-size="11.5" fill="#10b981" font-weight="600">Moran's I = +0.742 (z = 9.85)</text>
  </g>

  <!-- Middle Card: Spatial Econometrics & GWR -->
  <g transform="translate(400, 98)">
    <rect width="320" height="248" rx="14" fill="#0d1f30" stroke="#1e3a53" stroke-width="1.5"/>
    <text x="20" y="32" font-family="'Plus Jakarta Sans', sans-serif" font-size="15" font-weight="700" fill="#34d399">2. Spatial Econometrics</text>
    <text x="20" y="52" font-family="Inter, sans-serif" font-size="12" fill="#64748b">GWR &amp; Multiscale MGWR Kernels</text>

    <!-- Kernel Weighting Bell Curve -->
    <path d="M 30 190 Q 90 190 120 160 Q 160 70 160 70 Q 160 70 200 160 Q 230 190 290 190 Z" fill="url(#kernelGrad)"/>
    <path d="M 30 190 Q 90 190 120 160 Q 160 70 160 70 Q 160 70 200 160 Q 230 190 290 190" fill="none" stroke="#06b6d4" stroke-width="3"/>

    <!-- Center Bandwidth Marker -->
    <line x1="160" y1="65" x2="160" y2="195" stroke="#10b981" stroke-width="2" stroke-dasharray="3 3"/>
    <circle cx="160" cy="70" r="6" fill="#10b981" filter="url(#glowPulse)"/>

    <!-- Kernel Formula Label -->
    <text x="160" y="125" font-family="'Fira Code', monospace" font-size="11" fill="#e2e8f0" text-anchor="middle">w_ij = exp(-d_ij&#178; / b&#178;)</text>
    <text x="160" y="145" font-family="Inter, sans-serif" font-size="11" fill="#94a3b8" text-anchor="middle">Golden Section AICc Search</text>

    <text x="20" y="235" font-family="'Fira Code', monospace" font-size="11.5" fill="#34d399" font-weight="600">Local R&#178; = 0.884 &#183; AICc = 412.3</text>
  </g>

  <!-- Right Card: Explainable GeoAI & Spatial SHAP -->
  <g transform="translate(756, 98)">
    <rect width="320" height="248" rx="14" fill="#0d1f30" stroke="#1e3a53" stroke-width="1.5"/>
    <text x="20" y="32" font-family="'Plus Jakarta Sans', sans-serif" font-size="15" font-weight="700" fill="#a78bfa">3. Explainable GeoAI (XAI)</text>
    <text x="20" y="52" font-family="Inter, sans-serif" font-size="12" fill="#64748b">Spatial SHAP &amp; Conformal Coverage</text>

    <!-- Geographic Attribution Heatmap Grid -->
    <g transform="translate(30, 70)" stroke="#1e293b" stroke-width="1">
      <rect x="0" y="0" width="60" height="35" fill="#3b82f6" opacity="0.6"/>
      <rect x="65" y="0" width="60" height="35" fill="#06b6d4" opacity="0.7"/>
      <rect x="130" y="0" width="60" height="35" fill="#10b981" opacity="0.85"/>
      <rect x="195" y="0" width="65" height="35" fill="#ef4444" opacity="0.9"/>

      <rect x="0" y="40" width="60" height="35" fill="#3b82f6" opacity="0.4"/>
      <rect x="65" y="40" width="60" height="35" fill="#10b981" opacity="0.75"/>
      <rect x="130" y="40" width="60" height="35" fill="#f59e0b" opacity="0.8"/>
      <rect x="195" y="40" width="65" height="35" fill="#ef4444" opacity="0.7"/>

      <rect x="0" y="80" width="60" height="35" fill="#1e293b" opacity="0.8"/>
      <rect x="65" y="80" width="60" height="35" fill="#3b82f6" opacity="0.5"/>
      <rect x="130" y="80" width="60" height="35" fill="#06b6d4" opacity="0.6"/>
      <rect x="195" y="80" width="65" height="35" fill="#10b981" opacity="0.7"/>
    </g>

    <text x="20" y="215" font-family="'Fira Code', monospace" font-size="10.5" fill="#cbd5e1">SHAP &#934;_j(s) &#183; Spatial K-Fold CV</text>
    <text x="20" y="235" font-family="'Fira Code', monospace" font-size="11.5" fill="#a78bfa" font-weight="600">Coverage: 95% [y_low, y_high]</text>
  </g>
</svg>